# xmcd
#
# Track frame offsets: 
#        150
#        5968
#        22671
#        47025
#        81782
#        110969
#        156273
#        171989
#        190273
#        222042
#
# Disc length: 3401 seconds
#
# Revision: 0
# Processed by: cddbd v1.5.2PL0 Copyright (c) Steve Scherf et al.
# Submitted via: ExactAudioCopy v0.99pb4
#
DISCID=830d470a
DTITLE=Doors - Live in Hollywood 1969-07-21 (from 1st and 2nd set)
DYEAR=1969
DGENRE=Blues
TTITLE0=Introductions
TTITLE1=I will never be untrue
TTITLE2=Build me a woman
TTITLE3=Who do you love
TTITLE4=Little red rooster
TTITLE5=Gloria
TTITLE6=Touch me
TTITLE7=The crystal ship
TTITLE8=Close to you
TTITLE9=Rock me Baby
EXTD=
EXTT0=
EXTT1=
EXTT2=
EXTT3=
EXTT4=
EXTT5=
EXTT6=
EXTT7=
EXTT8=
EXTT9=
PLAYORDER=
